<svg width="15" height="15" viewBox="0 0 15 15" fill="none" xmlns="http://www.w3.org/2000/svg">
<g clip-path="url(#clip0_132_165)">
<path d="M6.875 2.5H2.5C2.16848 2.5 1.85054 2.6317 1.61612 2.86612C1.3817 3.10054 1.25 3.41848 1.25 3.75V12.5C1.25 12.8315 1.3817 13.1495 1.61612 13.3839C1.85054 13.6183 2.16848 13.75 2.5 13.75H11.25C11.5815 13.75 11.8995 13.6183 12.1339 13.3839C12.3683 13.1495 12.5 12.8315 12.5 12.5V8.125M11.5625 1.5625C11.8111 1.31386 12.1484 1.17418 12.5 1.17418C12.8516 1.17418 13.1889 1.31386 13.4375 1.5625C13.6861 1.81114 13.8258 2.14837 13.8258 2.5C13.8258 2.85163 13.6861 3.18886 13.4375 3.4375L7.5 9.375L5 10L5.625 7.5L11.5625 1.5625Z" stroke-width="2" stroke-linecap="round" stroke-linejoin="round"/>
</g>
<defs>
<clipPath id="clip0_132_165">
<rect width="15" height="15" fill="white"/>
</clipPath>
</defs>
</svg>
