<svg width="20" height="20" viewBox="0 0 20 20" fill="none" xmlns="http://www.w3.org/2000/svg">
<path d="M9.99999 5.83333C9.99999 4.94928 9.6488 4.10143 9.02368 3.47631C8.39856 2.85119 7.55071 2.5 6.66666 2.5H1.66666V15H7.49999C8.16303 15 8.79892 15.2634 9.26776 15.7322C9.7366 16.2011 9.99999 16.837 9.99999 17.5M9.99999 5.83333V17.5M9.99999 5.83333C9.99999 4.94928 10.3512 4.10143 10.9763 3.47631C11.6014 2.85119 12.4493 2.5 13.3333 2.5H18.3333V15H12.5C11.8369 15 11.2011 15.2634 10.7322 15.7322C10.2634 16.2011 9.99999 16.837 9.99999 17.5" stroke-width="3" stroke-linecap="round" stroke-linejoin="round"/>
</svg>
