<svg width="16" height="16" viewBox="0 0 16 16" fill="none" xmlns="http://www.w3.org/2000/svg">
<path d="M2 3.99999H3.33333M3.33333 3.99999H14M3.33333 3.99999L3.33333 13.3333C3.33333 13.687 3.47381 14.0261 3.72386 14.2761C3.97391 14.5262 4.31304 14.6667 4.66667 14.6667H11.3333C11.687 14.6667 12.0261 14.5262 12.2761 14.2761C12.5262 14.0261 12.6667 13.687 12.6667 13.3333V3.99999M5.33333 3.99999V2.66666C5.33333 2.31304 5.47381 1.9739 5.72386 1.72385C5.97391 1.4738 6.31304 1.33333 6.66667 1.33333H9.33333C9.68696 1.33333 10.0261 1.4738 10.2761 1.72385C10.5262 1.9739 10.6667 2.31304 10.6667 2.66666V3.99999M6.66667 7.33333V11.3333M9.33333 7.33333V11.3333" stroke-width="1.6" stroke-linecap="round" stroke-linejoin="round"/>
</svg>
