<svg width="32" height="32" viewBox="0 0 32 32" fill="none" xmlns="http://www.w3.org/2000/svg">
<g clip-path="url(#clip0_37_1133)">
<path d="M21.3333 28V25.3333C21.3333 23.9188 20.7714 22.5623 19.7712 21.5621C18.771 20.5619 17.4144 20 15.9999 20H6.66659C5.2521 20 3.89554 20.5619 2.89535 21.5621C1.89516 22.5623 1.33325 23.9188 1.33325 25.3333V28M22.6666 14.6667L25.3333 17.3333L30.6666 12M16.6666 9.33333C16.6666 12.2789 14.2788 14.6667 11.3333 14.6667C8.38773 14.6667 5.99992 12.2789 5.99992 9.33333C5.99992 6.38781 8.38773 4 11.3333 4C14.2788 4 16.6666 6.38781 16.6666 9.33333Z" stroke="#1E1E1E" stroke-width="4" stroke-linecap="round" stroke-linejoin="round"/>
</g>
<defs>
<clipPath id="clip0_37_1133">
<rect width="32" height="32" fill="white"/>
</clipPath>
</defs>
</svg>